<svg width="264" height="39" viewBox="0 0 264 39" fill="none" xmlns="http://www.w3.org/2000/svg">
<g clip-path="url(#clip0_5010_8509)">
<path d="M21.2279 30.3864V35.9636C21.2279 37.2809 22.405 38.2412 23.6344 37.9464C31.8415 35.9784 37.963 28.3043 37.963 19.1352C37.963 18.3604 37.9184 17.5962 37.8329 16.8458C37.6409 15.1648 35.6622 14.466 34.516 15.6633L21.7995 28.9461C21.4335 29.3281 21.2279 29.8463 21.2279 30.387V30.3864Z" fill="#37B557"/>
<path d="M17.0042 0.00609273C15.5312 0.212875 14.114 0.600891 12.7723 1.14815C12.3445 1.32225 12.2298 1.90041 12.5542 2.2391L16.6501 6.51675C17.0506 6.93507 17.7351 6.63856 17.7351 6.04733V0.663281C17.7351 0.257441 17.3899 -0.0479795 17.0042 0.00609273Z" fill="#37B557"/>
<path d="M22.8756 22.6619L34.9504 10.0494C35.2683 9.71721 35.336 9.21035 35.0977 8.81699C34.3187 7.53292 33.3989 6.35225 32.3609 5.29754C31.2663 4.18579 29.4653 4.2054 28.3862 5.3326L21.5167 12.5082C21.3313 12.7019 21.2279 12.9592 21.2279 13.2277V21.9488C21.2279 22.8473 22.2678 23.2971 22.8756 22.6619Z" fill="#37B557"/>
<path d="M17.4463 12.5081L10.5768 5.33252C9.49772 4.20592 7.6967 4.18631 6.60218 5.29746C5.56411 6.35217 4.64429 7.53284 3.86529 8.81691C3.62701 9.20968 3.69475 9.71713 4.01265 10.0493L16.0874 22.6618C16.6953 23.297 17.7351 22.8472 17.7351 21.9488V13.2277C17.7351 12.9597 17.6317 12.7018 17.4463 12.5081Z" fill="#37B557"/>
<path d="M21.2279 0.663281V6.04733C21.2279 6.63856 21.9124 6.93507 22.3129 6.51675L26.4087 2.2391C26.7332 1.89981 26.6185 1.32225 26.1907 1.14815C24.849 0.600891 23.4318 0.212875 21.9588 0.00609273C21.5737 -0.0479795 21.2279 0.257441 21.2279 0.663281Z" fill="#37B557"/>
<path d="M17.1635 28.9455L4.44696 15.6627C3.30075 14.4654 1.32265 15.1636 1.13013 16.8452C1.04457 17.5956 1 18.3598 1 19.1346C1 28.3043 7.12146 35.9778 15.3286 37.9458C16.558 38.2406 17.7351 37.2809 17.7351 35.963V30.3858C17.7351 29.8457 17.5295 29.3275 17.1635 28.9455Z" fill="#37B557"/>
<path d="M57.119 31.5087C55.0155 29.4052 53.9629 26.5043 53.9629 22.8028C53.9629 19.1012 55.0147 16.2012 57.119 14.0977C59.2217 11.995 62.1234 10.9424 65.8241 10.9424C69.5248 10.9424 72.4257 11.9942 74.5292 14.0977C76.6327 16.2004 77.6853 19.1029 77.6853 22.8028C77.6853 26.5026 76.6336 29.4043 74.5292 31.5087C72.4248 33.6131 69.524 34.664 65.8241 34.664C62.1243 34.664 59.2226 33.6122 57.119 31.5087ZM68.8446 31.2619C69.6648 29.5918 70.0753 26.7723 70.0753 22.8028C70.0753 18.8332 69.6648 16.0155 68.8446 14.3437C68.0235 12.6736 67.0167 11.8372 65.8233 11.8372C64.6299 11.8372 63.6222 12.6736 62.802 14.3437C61.9809 16.0155 61.5712 18.8349 61.5712 22.8028C61.5712 26.7706 61.9809 29.5918 62.802 31.2619C63.6222 32.9337 64.629 33.7683 65.8233 33.7683C67.0175 33.7683 68.0235 32.9337 68.8446 31.2619Z" fill="#E8F8F6"/>
<path d="M80.6861 33.9931L83.3715 33.3222V13.6287L80.6861 12.9569V12.2859H84.7143C86.4743 12.2859 87.8619 12.8534 88.8764 13.9874C89.264 14.4344 89.5931 14.9866 89.8611 15.6423C90.3081 14.9866 90.8603 14.3895 91.5168 13.8534C93.0088 12.66 94.6797 12.0629 96.5297 12.0629C98.1107 12.0629 99.2973 12.4293 100.087 13.1596C100.878 13.8907 101.273 14.9425 101.273 16.3149C101.273 17.3293 100.967 18.1428 100.356 18.7543C99.7435 19.3659 98.9301 19.6721 97.9165 19.6721C97.4983 19.6721 97.081 19.6424 96.6628 19.583L96.1259 19.449V13.1825C94.6034 13.1825 93.2158 13.7796 91.9638 14.9722C91.3667 15.5693 90.8891 16.1665 90.5312 16.7627V33.3222L93.2166 33.9931V34.664H80.6853L80.6861 33.9931Z" fill="#E8F8F6"/>
<path d="M107.451 31.5087C105.332 29.4052 104.273 26.5043 104.273 22.8028C104.273 20.3854 104.735 18.2827 105.66 16.493C106.585 14.7025 107.876 13.3301 109.532 12.3758C111.187 11.4216 113.09 10.9441 115.238 10.9441C117.387 10.9441 119.274 11.347 120.9 12.1519C122.526 12.9577 123.78 14.0409 124.66 15.3971C125.54 16.756 125.981 18.2547 125.981 19.8951C125.981 20.6416 125.906 21.2837 125.757 21.8206L125.533 22.5806C124.25 22.8486 122.863 23.0725 121.371 23.2515C118.238 23.6993 115.075 23.9233 111.882 23.9233C111.882 27.3848 112.359 29.853 113.314 31.3306C114.268 32.8065 115.581 33.5452 117.253 33.5452C118.417 33.5452 119.497 33.2704 120.497 32.7165C121.497 32.1652 122.287 31.4341 122.87 30.524C123.451 29.6138 123.742 28.6817 123.742 27.7266H124.86C124.86 28.92 124.502 30.054 123.786 31.1279C123.07 32.2025 122.071 33.0601 120.787 33.7022C119.504 34.3434 118.027 34.664 116.356 34.664C112.537 34.664 109.568 33.6122 107.45 31.5087H107.451ZM116.536 22.5797C117.043 22.55 117.58 22.4754 118.147 22.3558C118.177 22.2065 118.251 21.8791 118.372 21.3719C118.52 20.6263 118.596 19.8349 118.596 18.9994C118.596 16.5227 118.266 14.7101 117.611 13.5608C116.954 12.4123 116.163 11.8381 115.238 11.8381C113.001 11.8381 111.882 15.4947 111.882 22.8036C113.791 22.8036 115.343 22.7298 116.536 22.5797Z" fill="#E8F8F6"/>
<path d="M128.981 33.9922L131.666 33.3213V13.6278L128.981 12.956V12.2851H133.009C134.769 12.2851 136.157 12.8525 137.171 13.9866C137.559 14.4336 137.888 14.9857 138.156 15.6414C138.603 14.8068 139.08 14.1358 139.588 13.6278C140.93 12.2851 142.467 11.6141 144.198 11.6141C145.928 11.6141 147.45 11.9941 148.763 12.7558C150.076 13.5158 151.09 14.5532 151.807 15.8662C152.254 15.0002 152.731 14.2995 153.238 13.7635C154.61 12.3309 156.148 11.615 157.848 11.615C159.43 11.615 160.854 11.9432 162.123 12.5989C163.391 13.2554 164.375 14.1511 165.077 15.2843C165.777 16.4192 166.128 17.6567 166.128 18.9994V33.3221L168.813 33.9931V34.664H162.995C160.31 34.664 158.967 33.3221 158.967 30.6367V18.9994C158.967 17.0604 158.669 15.6058 158.072 14.6354C157.474 13.6659 156.803 13.1808 156.058 13.1808C155.192 13.1808 154.312 13.7779 153.417 14.9705C153.06 15.5379 152.747 16.1342 152.478 16.761V33.3204L155.163 33.9914V34.6623H142.632V33.9914L145.317 33.3204V18.9977C145.317 17.0587 145.019 15.6041 144.422 14.6337C143.825 13.6642 143.153 13.1791 142.408 13.1791C141.542 13.1791 140.662 13.7762 139.767 14.9688C139.409 15.5362 139.096 16.1325 138.828 16.7593V33.3187L141.513 33.9897V34.6606H128.982V33.9897L128.981 33.9922Z" fill="#E8F8F6"/>
<path d="M171.813 33.9931L174.498 33.3221V4.67755L171.813 4.00662V3.33569H177.632C180.316 3.33569 181.659 4.67755 181.659 7.36295V33.3221L184.344 33.9931V34.664H171.813V33.9931Z" fill="#E8F8F6"/>
<path d="M190.501 31.5087C188.397 29.4052 187.344 26.5043 187.344 22.8028C187.344 19.1012 188.396 16.2012 190.501 14.0977C192.603 11.995 195.505 10.9424 199.206 10.9424C202.906 10.9424 205.807 11.9942 207.911 14.0977C210.014 16.2004 211.067 19.1029 211.067 22.8028C211.067 26.5026 210.015 29.4043 207.911 31.5087C205.806 33.6131 202.906 34.664 199.206 34.664C195.506 34.664 192.604 33.6122 190.501 31.5087ZM202.226 31.2619C203.046 29.5918 203.457 26.7723 203.457 22.8028C203.457 18.8332 203.046 16.0155 202.226 14.3437C201.405 12.6736 200.398 11.8372 199.205 11.8372C198.011 11.8372 197.004 12.6736 196.184 14.3437C195.363 16.0155 194.953 18.8349 194.953 22.8028C194.953 26.7706 195.363 29.5918 196.184 31.2619C197.004 32.9337 198.011 33.7683 199.205 33.7683C200.399 33.7683 201.405 32.9337 202.226 31.2619Z" fill="#E8F8F6"/>
</g>
<defs>
<clipPath id="clip0_5010_8509">
<rect width="264" height="39" fill="white"/>
</clipPath>
</defs>
</svg>
